<?xml version="1.0" standalone="no"?><!DOCTYPE svg PUBLIC "-//W3C//DTD SVG 1.1//EN" "http://www.w3.org/Graphics/SVG/1.1/DTD/svg11.dtd"><svg t="1588231865659" class="icon" viewBox="0 0 1024 1024" version="1.1" xmlns="http://www.w3.org/2000/svg" p-id="17249" xmlns:xlink="http://www.w3.org/1999/xlink" width="200" height="200"><defs><style type="text/css"></style></defs><path d="M938.558 418.49l-85.324-34.46-183.862-127.972-125.942 106.632-149.966 133.78-201.952 132.846-49.988 29.118-117.226-29.118-2.872 355.012 1002.456 18.214V354.504z" fill="#A0D468" p-id="17250"></path><path d="M128.088 661.308h42.646v341.234H128.088zM256.058 575.984h42.646v433.244h-42.646zM512 368.032h42.648v634.512H512zM384.03 490.66h42.646v511.882h-42.646zM639.972 233.406h42.644v769.136h-42.644zM895.914 448.014h42.644v554.53h-42.644zM767.942 341.382h42.648v661.16h-42.648z" fill="#8CC153" p-id="17251"></path><path d="M1023.882 362.69c0-11.78-9.558-21.306-21.338-21.306a21.232 21.232 0 0 0-15.092 6.248l-71.544 71.516-240.974-200.8-13.654 16.372-15.06-15.058-254.474 254.44-244.85 163.212-96.228-38.492-15.84 39.618 106.664 42.678 7.904-19.808 11.84 17.746 255.942-170.648-11.84-17.746 15.09 15.09 242.162-242.162 240.976 200.796 13.654-16.372 15.09 15.09 85.292-85.324a21.194 21.194 0 0 0 6.28-15.09z" fill="#E6E9ED" p-id="17252"></path><path d="M42.764 256.058c-11.778 0-21.338-9.56-21.338-21.34s9.56-21.306 21.338-21.306c11.78 0 21.34 9.528 21.34 21.306s-9.562 21.34-21.34 21.34zM42.764 384.03c-11.778 0-21.338-9.56-21.338-21.34s9.56-21.306 21.338-21.306c11.78 0 21.34 9.528 21.34 21.306s-9.562 21.34-21.34 21.34zM42.764 512c-11.778 0-21.338-9.56-21.338-21.34s9.56-21.306 21.338-21.306c11.78 0 21.34 9.528 21.34 21.306S54.542 512 42.764 512zM42.764 639.97c-11.778 0-21.338-9.562-21.338-21.34s9.56-21.308 21.338-21.308c11.78 0 21.34 9.532 21.34 21.308s-9.562 21.34-21.34 21.34zM42.764 767.942c-11.778 0-21.338-9.56-21.338-21.34s9.56-21.308 21.338-21.308c11.78 0 21.34 9.53 21.34 21.308s-9.562 21.34-21.34 21.34zM42.764 895.912c-11.778 0-21.338-9.56-21.338-21.34s9.56-21.306 21.338-21.306c11.78 0 21.34 9.528 21.34 21.306s-9.562 21.34-21.34 21.34zM42.764 128.088c-11.778 0-21.338-9.56-21.338-21.34s9.56-21.306 21.338-21.306c11.78 0 21.34 9.528 21.34 21.306s-9.562 21.34-21.34 21.34z" fill="#434A54" p-id="17253"></path><path d="M1002.544 981.236H42.764V21.456c0-11.78-9.56-21.338-21.338-21.338C9.646 0.118 0.118 9.676 0.118 21.456v981.088c0 11.78 9.53 21.34 21.308 21.34h981.12c11.78 0 21.338-9.56 21.338-21.34s-9.56-21.308-21.34-21.308z" fill="#656D78" p-id="17254"></path><path d="M149.396 661.308m-63.986 0a63.986 63.986 0 1 0 127.972 0 63.986 63.986 0 1 0-127.972 0Z" fill="#F5F7FA" p-id="17255"></path><path d="M405.336 490.66m-63.986 0a63.986 63.986 0 1 0 127.972 0 63.986 63.986 0 1 0-127.972 0Z" fill="#F5F7FA" p-id="17256"></path><path d="M661.28 234.718m-63.986 0a63.986 63.986 0 1 0 127.972 0 63.986 63.986 0 1 0-127.972 0Z" fill="#F5F7FA" p-id="17257"></path><path d="M917.22 448.014m-63.986 0a63.986 63.986 0 1 0 127.972 0 63.986 63.986 0 1 0-127.972 0Z" fill="#F5F7FA" p-id="17258"></path></svg>